<?xml version="1.0" encoding="UTF-8"?>
<!DOCTYPE svg PUBLIC "-//W3C//DTD SVG 1.1//EN" "http://www.w3.org/Graphics/SVG/1.1/DTD/svg11.dtd">
<svg xmlns="http://www.w3.org/2000/svg" version="1.1" width="274px" height="274px" style="shape-rendering:geometricPrecision; text-rendering:geometricPrecision; image-rendering:optimizeQuality; fill-rule:evenodd; clip-rule:evenodd" xmlns:xlink="http://www.w3.org/1999/xlink">
<g><path style="opacity:1" fill="#262841" d="M -0.5,-0.5 C 90.8333,-0.5 182.167,-0.5 273.5,-0.5C 273.5,90.8333 273.5,182.167 273.5,273.5C 182.167,273.5 90.8333,273.5 -0.5,273.5C -0.5,182.167 -0.5,90.8333 -0.5,-0.5 Z"/></g>
<g><path style="opacity:1" fill="#24293f" d="M 159.5,61.5 C 157.792,58.0497 156.459,54.383 155.5,50.5C 142.496,50.3334 129.496,50.5001 116.5,51C 114.93,54.6363 113.263,58.1363 111.5,61.5C 112.365,56.9332 112.365,52.2665 111.5,47.5C 127.542,47.5308 143.375,47.5308 159,47.5C 158.961,52.3084 159.127,56.9751 159.5,61.5 Z"/></g>
<g><path style="opacity:1" fill="#63687e" d="M 159.5,61.5 C 178.833,114.167 198.167,166.833 217.5,219.5C 203.01,220.496 188.343,220.829 173.5,220.5C 170.909,210.393 167.909,200.393 164.5,190.5C 145.5,189.167 126.5,189.167 107.5,190.5C 104.149,200.602 100.816,210.602 97.5,220.5C 82.9903,220.829 68.6569,220.496 54.5,219.5C 73.5229,166.798 92.5229,114.131 111.5,61.5C 113.263,58.1363 114.93,54.6363 116.5,51C 129.496,50.5001 142.496,50.3334 155.5,50.5C 156.459,54.383 157.792,58.0497 159.5,61.5 Z"/></g>
<g><path style="opacity:1" fill="#262841" d="M 135.5,99.5 C 142.474,118.429 148.474,137.762 153.5,157.5C 141.482,157.832 129.482,157.499 117.5,156.5C 123.805,137.567 129.805,118.567 135.5,99.5 Z"/></g>
<g><path style="opacity:1" fill="#3c4057" d="M 54.5,219.5 C 68.6569,220.496 82.9903,220.829 97.5,220.5C 82.9946,221.826 68.3279,221.826 53.5,220.5C 53.6236,219.893 53.9569,219.56 54.5,219.5 Z"/></g>
<g><path style="opacity:1" fill="#3c4057" d="M 217.5,219.5 C 218.043,219.56 218.376,219.893 218.5,220.5C 203.339,221.826 188.339,221.826 173.5,220.5C 188.343,220.829 203.01,220.496 217.5,219.5 Z"/></g>
</svg>
